<svg width="495" height="561" viewBox="0 0 495 561" fill="none" xmlns="http://www.w3.org/2000/svg">
<path d="M225.975 301C242.308 301 253.058 305.833 258.225 315.5C263.391 325 265.975 339 265.975 357.5C265.975 375.667 263.391 389.667 258.225 399.5C253.058 409.167 242.308 414 225.975 414V301Z" fill="white"/>
<path d="M225.975 153.5C240.808 153.5 251.141 157.5 256.975 165.5C262.975 173.333 265.975 185.5 265.975 202C265.975 218.333 263.058 230.667 257.225 239C251.558 247.333 241.141 251.5 225.975 251.5V153.5Z" fill="white"/>
<path fill-rule="evenodd" clip-rule="evenodd" d="M246.975 0C367.922 0 468.809 85.8881 491.973 200H468.975V200.059C428.944 201.633 396.975 234.583 396.975 275C396.975 315.417 428.944 348.366 468.975 349.94V350H493.949C475.222 469.547 371.779 561 246.975 561C122.17 561 18.727 469.547 0 350H19.9746V349.973C20.6392 349.99 21.3059 350 21.9746 350C63.396 350 96.9746 316.421 96.9746 275C96.9746 233.579 63.396 200 21.9746 200C21.3059 200 20.6392 200.009 19.9746 200.026V200H1.97656C25.1402 85.8881 126.027 0 246.975 0ZM171.975 467.5H235.975C254.641 467.5 270.308 463.167 282.975 454.5C295.808 445.667 305.475 433.417 311.975 417.75C318.641 402.083 321.975 384 321.975 363.5C321.975 342.667 319.058 324.333 313.225 308.5C307.391 292.5 297.808 280.833 284.475 273.5C297.641 265.167 306.475 254.417 310.975 241.25C315.641 228.083 317.975 212.667 317.975 195C317.975 172.833 314.225 154.75 306.725 140.75C299.391 126.75 288.891 116.5 275.225 110C261.725 103.333 245.641 100 226.975 100H171.975V467.5Z" fill="white"/>
<path d="M494.462 346.568C494.306 347.66 494.144 348.75 493.975 349.838V346.72C494.137 346.67 494.3 346.619 494.462 346.568Z" fill="white"/>
</svg>
